<?xml version="1.0" standalone="no"?>
<!DOCTYPE svg PUBLIC "-//W3C//DTD SVG 20010904//EN"
 "http://www.w3.org/TR/2001/REC-SVG-20010904/DTD/svg10.dtd">
<svg version="1.0" xmlns="http://www.w3.org/2000/svg"
 width="512.000000pt" height="512.000000pt" viewBox="0 0 512.000000 512.000000"
 preserveAspectRatio="xMidYMid meet">
<metadata>
Created by potrace 1.14, written by Peter Selinger 2001-2017
</metadata>
<g transform="translate(0.000000,512.000000) scale(0.100000,-0.100000)"
fill="#000000" stroke="none">
<path d="M1838 4969 c-348 -37 -621 -135 -911 -326 -126 -83 -198 -142 -324
-267 -320 -316 -520 -706 -587 -1141 -21 -138 -15 -433 13 -566 22 -108 68
-251 104 -327 21 -44 23 -57 16 -99 -24 -122 -6 -282 42 -375 28 -54 99 -130
160 -169 94 -60 276 -86 399 -58 36 8 52 7 85 -7 22 -10 58 -25 80 -35 74 -32
235 -75 320 -85 22 -3 47 -8 55 -11 33 -12 320 -11 415 2 98 13 253 42 267 51
4 3 31 -19 61 -48 84 -82 113 -106 216 -176 175 -119 402 -208 605 -238 43 -6
50 -10 63 -43 20 -46 12 -141 -15 -196 -33 -67 -113 -237 -130 -280 -11 -25
-17 -68 -17 -115 0 -62 5 -85 28 -132 101 -207 375 -244 526 -72 49 55 74 118
77 195 3 78 -2 95 -105 317 -76 164 -84 206 -58 282 12 34 12 34 122 56 632
124 1100 619 1189 1258 21 152 10 366 -26 538 -2 6 11 14 27 18 47 11 172 67
239 107 57 35 202 171 254 238 13 17 39 59 59 94 l36 63 -23 46 c-134 277
-422 469 -747 499 l-81 8 49 65 c50 67 113 185 135 255 10 30 34 135 40 170
23 145 -17 429 -64 454 -9 5 -57 19 -107 31 -210 53 -461 17 -654 -92 -121
-68 -242 -180 -312 -288 l-33 -51 -31 63 c-60 126 -180 215 -323 242 -70 13
-135 13 -237 1 -54 -6 -67 -4 -125 22 -128 59 -280 100 -430 118 -83 10 -267
12 -342 4z"/>
</g>
</svg>
